<svg width="40" height="40" viewBox="0 0 40 40" fill="none" xmlns="http://www.w3.org/2000/svg">
<g clip-path="url(#clip0_41_225)">
<path fill-rule="evenodd" clip-rule="evenodd" d="M8.03332 32.345C3.08999 29.25 -0.200012 23.7567 -0.200012 17.5C-0.200012 7.84167 7.64165 0 17.3 0C23.3083 0 28.615 3.035 31.7667 7.655C36.71 10.75 40 16.2433 40 22.5C40 32.1583 32.1583 40 22.5 40C16.5017 40 11.2033 36.975 8.04999 32.3683L8.03332 32.345ZM22.5 6.66667C31.2383 6.66667 38.3333 13.7617 38.3333 22.5C38.3333 31.2383 31.2383 38.3333 22.5 38.3333C13.7617 38.3333 6.66665 31.2383 6.66665 22.5C6.66665 13.7617 13.7617 6.66667 22.5 6.66667ZM23.3333 31.6667H21.6317V30.215C17.7267 29.7117 17.3 26.5833 17.3 25.6417H19.1183C19.16 26.3167 19.38 28.5983 22.755 28.5983C23.7533 28.5983 24.5683 28.3633 25.1767 27.9C25.7783 27.44 26.07 26.88 26.07 26.185C26.07 24.8633 25.215 23.9067 22.62 23.3217C18.6733 22.4283 17.7483 20.9917 17.7483 19.1C17.7483 16.585 19.7867 15.4067 21.6317 15.09V13.3333H23.3333V15.025C27.485 15.35 27.825 18.7167 27.825 19.6433H25.995C25.995 17.7083 24.465 16.7 22.6683 16.7C20.8733 16.7 19.5783 17.5867 19.5783 19.0467C19.5783 20.3483 20.31 20.9883 22.9017 21.6367C26.0333 22.425 27.9 23.4717 27.9 26.105C27.9 29.0117 25.385 30.0933 23.3333 30.26V31.6667ZM28.0833 5.91167C25.2567 3.27833 21.465 1.66667 17.3 1.66667C8.56165 1.66667 1.46665 8.76167 1.46665 17.5C1.46665 21.8883 3.25499 25.8617 6.14332 28.7317L6.13665 28.715C5.40332 26.7833 4.99999 24.6883 4.99999 22.5C4.99999 12.8417 12.8417 5 22.5 5C24.4517 5 26.33 5.32 28.0833 5.91167Z" fill="white"/>
</g>
<defs>
<clipPath id="clip0_41_225">
<rect width="40" height="40" fill="white"/>
</clipPath>
</defs>
</svg>
