<svg width="46" height="46" viewBox="0 0 46 46" fill="none" xmlns="http://www.w3.org/2000/svg">
<path d="M19.3928 30.7893C23.7878 29.7754 27.8798 28.8861 25.898 25.1448C19.8682 13.7559 24.2995 7.66667 30.6667 7.66667C37.1603 7.66667 41.4843 13.9898 35.4353 25.1448C33.3941 28.9091 37.6376 29.7965 41.9405 30.7893C45.747 31.6691 46 33.5302 46 36.7521L45.9942 38.3333H15.3391C15.3391 34.1243 15.0017 31.8033 19.3928 30.7893ZM0.00383333 38.3333H11.5057C11.4521 25.7945 17.2462 31.2474 17.2462 21.2731C17.2462 17.4225 14.7334 15.3333 11.5 15.3333C6.72367 15.3333 3.40017 19.9008 7.9235 28.4414C9.40892 31.2474 6.34225 31.9144 3.04558 32.6753C0.18975 33.3347 0 34.73 0 37.1469L0.00383333 38.3333Z" fill="white"/>
</svg>
