<svg width="43" height="43" viewBox="0 0 43 43" fill="none" xmlns="http://www.w3.org/2000/svg">
<g clip-path="url(#clip0_51_281)">
<path d="M22.1307 3.77504C26.5758 6.92658 26.5632 6.88537 31.9723 6.85312C32.4095 6.85312 32.7947 7.09679 32.9111 7.44617C34.5541 12.4431 34.5989 12.5309 39.0709 15.6054C39.3862 15.824 39.4776 16.1555 39.3826 16.417C37.6429 21.4355 37.6286 21.4946 39.3826 26.5865C39.4776 26.8463 39.388 27.1778 39.0691 27.3982C34.6455 30.4422 34.581 30.4977 32.9111 35.5556C32.7947 35.905 32.4095 36.1487 31.9687 36.1487C26.6027 36.1146 26.5937 36.0609 22.1325 39.225C21.7652 39.4847 21.2348 39.483 20.8711 39.225C16.4368 36.0877 16.4582 36.1093 11.0295 36.1487C10.5923 36.1487 10.2071 35.905 10.0925 35.5592C8.61254 31.0818 8.46742 30.5067 4.85183 28.0306L3.93092 27.3964C3.61558 27.1778 3.52421 26.8463 3.61917 26.5847C5.17075 22.0984 5.40904 21.5591 3.96496 17.4222C3.70338 16.6625 3.29487 16.0444 3.93092 15.6018C8.33483 12.5721 8.42083 12.5166 10.0889 7.44438C10.2053 7.095 10.5905 6.85133 11.0313 6.85133C16.4224 6.88896 16.3991 6.93733 20.8693 3.77504C21.2384 3.51525 21.7705 3.52242 22.1307 3.77504ZM21.5 0C20.5558 0 19.6098 0.281292 18.8089 0.843875C15.661 3.05837 15.6377 3.28412 13.1616 3.28412L11.042 3.26979H11.0277C9.04971 3.26979 7.29567 4.49708 6.69008 6.30846C5.23525 10.6676 5.73513 9.99033 1.88842 12.6581C0.679042 13.4966 0 14.8296 0 16.2092C0 16.6643 0.0734583 17.1265 0.227542 17.5763C1.71462 21.9264 1.70925 21.0933 0.227542 25.4237C0.0734583 25.8735 0 26.3339 0 26.7908C0 28.1704 0.679042 29.5034 1.89021 30.3419C5.73692 33.0097 5.23883 32.3378 6.69187 36.6915C7.29746 38.5029 9.04971 39.7302 11.0295 39.7302H11.0438C15.7953 39.7159 14.9658 39.4525 18.8107 42.1561C19.6098 42.7169 20.5558 43 21.5 43C22.4442 43 23.3902 42.7187 24.1911 42.1561C27.3444 39.938 27.348 39.7177 29.8904 39.7177L31.958 39.7302H31.9723C33.9503 39.7302 35.7043 38.5029 36.3099 36.6915C37.7648 32.3414 37.2559 33.0132 41.1116 30.3419C42.321 29.5016 43 28.1704 43 26.7908C43 26.3357 42.9265 25.8735 42.7725 25.4237C41.2836 21.0736 41.2907 21.9067 42.7725 17.5763C42.9265 17.1265 43 16.6643 43 16.2092C43 14.8296 42.321 13.4966 41.1098 12.6581C37.2541 9.98496 37.763 10.6568 36.3081 6.30846C35.7025 4.49708 33.9503 3.26979 31.9705 3.26979H31.9562L29.885 3.28233C27.348 3.28233 27.3408 3.06017 24.1893 0.843875C23.3902 0.281292 22.4442 0 21.5 0ZM28.1256 27.5092C27.4 27.4537 27.468 26.7818 28.1542 26.6546C29.2902 26.445 29.79 25.8358 29.79 25.2732C29.79 24.7985 29.4353 24.3577 28.8064 24.2144C28.0575 24.0442 28.2116 23.5353 28.8351 23.487C29.8492 23.4063 30.3472 22.8025 30.3472 22.2238C30.3472 21.7186 29.9674 21.2312 29.2185 21.1309C28.4499 21.0288 28.7007 20.4734 29.2472 20.305C29.7148 20.1616 30.4601 19.857 30.4601 18.9522C30.4601 18.3502 30.0122 17.553 28.4248 17.6175C27.3247 17.6622 25.1407 17.4401 23.9653 16.8255C24.7752 13.5486 24.5799 8.95833 22.4514 8.95833C21.0234 8.95833 20.7529 10.5762 20.3229 12.0651C18.7838 17.4114 15.7057 18.3915 12.5417 18.877V27.7708C18.533 27.7708 20.1562 30.4583 24.639 30.4583C27.5057 30.4583 28.9856 28.905 28.9856 28.07C28.9856 27.7708 28.7419 27.5558 28.1256 27.5092Z" fill="white"/>
</g>
<defs>
<clipPath id="clip0_51_281">
<rect width="43" height="43" fill="white"/>
</clipPath>
</defs>
</svg>
